<?xml version="1.0" encoding="UTF-8"?>
<svg width="40" height="40" viewBox="0 0 40 40" fill="none" xmlns="http://www.w3.org/2000/svg">
  <rect width="40" height="40" rx="8" fill="#2563EB"/>
  <path d="M20 8C13.373 8 8 13.373 8 20C8 26.627 13.373 32 20 32C26.627 32 32 26.627 32 20C32 13.373 26.627 8 20 8ZM25.707 19.293L20.707 14.293C20.317 13.903 19.683 13.903 19.293 14.293L14.293 19.293C13.903 19.683 13.903 20.317 14.293 20.707C14.488 20.902 14.744 21 15 21C15.256 21 15.512 20.902 15.707 20.707L19 17.414V25C19 25.553 19.447 26 20 26C20.553 26 21 25.553 21 25V17.414L24.293 20.707C24.683 21.097 25.317 21.097 25.707 20.707C26.097 20.317 26.097 19.683 25.707 19.293Z" fill="white"/>
</svg>
